<?xml version="1.0" encoding="UTF-8"?>
<svg width="83px" height="95px" viewBox="0 0 83 95" version="1.1" xmlns="http://www.w3.org/2000/svg" xmlns:xlink="http://www.w3.org/1999/xlink">
    <!-- Generator: Sketch 48.1 (47250) - http://www.bohemiancoding.com/sketch -->
    <title>Group 54</title>
    <desc>Created with Sketch.</desc>
    <defs></defs>
    <g id="Login-3-Copy-28" stroke="none" stroke-width="1" fill="none" fill-rule="evenodd" transform="translate(-1577.000000, -773.000000)">
        <g id="Group-12" transform="translate(60.000000, 28.000000)">
            <g id="Group-18">
                <g id="Group-2">
                    <g id="Group-42">
                        <g id="Group-3" transform="translate(1333.000000, 0.000000)">
                            <g id="Group-10">
                                <g id="Group-52">
                                    <g id="Group-50" transform="translate(176.000000, 745.000000)">
                                        <g id="Group-55">
                                            <g id="Group-54">
                                                <text id="暂时没有新通知" font-family="PingFangSC-Regular, PingFang SC" font-size="12" font-weight="normal" line-spacing="21" fill="#BBBBBB">
                                                    <tspan x="8" y="93">暂时没有新通知</tspan>
                                                </text>
                                                <g id="Group-46" opacity="0.326596467" transform="translate(15.000000, 0.000000)">
                                                    <path d="M14.6086957,46.7478261 L58.4053512,46.7478261 C60.6144902,46.7478261 62.4053512,44.9569651 62.4053512,42.7478261 L62.4053512,14.6086957 L67.0956522,14.6086957 C69.3047912,14.6086957 71.0956522,16.3995567 71.0956522,18.6086957 L71.0956522,67.2 L55.4005004,55.5130435 L18.6086957,55.5130435 C16.3995567,55.5130435 14.6086957,53.7221825 14.6086957,51.5130435 L14.6086957,46.7478261 Z" id="Combined-Shape" fill="#C9C8CD"></path>
                                                    <path d="M4,0 L52.4869565,-1.77635684e-15 C54.6960955,1.74205008e-15 56.4869565,1.790861 56.4869565,4 L56.4869565,36.9043478 C56.4869565,39.1134868 54.6960955,40.9043478 52.4869565,40.9043478 L15.6951517,40.9043478 L0,52.5913043 L0,4 C-2.705415e-16,1.790861 1.790861,4.05812251e-16 4,0 Z" id="Rectangle-5" fill="#C9C8CD"></path>
                                                    <g id="Group-49" transform="translate(13.000000, 17.000000)" fill="#FFFFFF">
                                                        <circle id="Oval-3" cx="3" cy="3" r="3"></circle>
                                                        <circle id="Oval-3" cx="15" cy="3" r="3"></circle>
                                                        <circle id="Oval-3" cx="27" cy="3" r="3"></circle>
                                                    </g>
                                                </g>
                                            </g>
                                        </g>
                                    </g>
                                </g>
                            </g>
                        </g>
                    </g>
                </g>
            </g>
        </g>
    </g>
</svg>