<?xml version="1.0" encoding="UTF-8"?>
<svg width="95px" height="97px" viewBox="0 0 95 97" version="1.1" xmlns="http://www.w3.org/2000/svg" xmlns:xlink="http://www.w3.org/1999/xlink">
    <!-- Generator: Sketch 48.1 (47250) - http://www.bohemiancoding.com/sketch -->
    <title>Group 12</title>
    <desc>Created with Sketch.</desc>
    <defs></defs>
    <g id="Login-3-Copy-29" stroke="none" stroke-width="1" fill="none" fill-rule="evenodd" transform="translate(-1569.000000, -798.000000)">
        <g id="Group-50" transform="translate(1391.000000, 15.000000)">
            <g id="Group-18" transform="translate(176.000000, 783.000000)">
                <g id="Group-12">
                    <g id="Group-52" transform="translate(20.000000, 0.000000)" fill="#EEEEEF" fill-rule="nonzero">
                        <path d="M45.9729012,14 L49.4396476,14 C52.3448787,14 54.9571453,16.1397516 55.2794062,18.8396739 L60.9385034,58.298913 C61.4414257,62.4976708 58.8047454,66 55.0401519,66 L5.95883613,66 C2.19424257,66 -0.437554998,62.4926242 0.0604846167,58.298913 L5.7195818,18.8396739 C6.04184273,16.1397516 8.6492266,14 11.5593404,14 L14.7868324,14 L45.9729012,14 Z M12.5261232,25.2791149 C12.4759666,26.7345545 13.1986131,28.1021805 14.4104654,28.8452781 C15.6223177,29.5883757 17.1300118,29.5883757 18.3418641,28.8452781 C19.5537164,28.1021805 20.2763629,26.7345545 20.2262063,25.2791149 C20.152371,23.1365706 18.4504636,21.439092 16.3761647,21.439092 C14.3018659,21.439092 12.5999585,23.1365706 12.5261232,25.2791149 Z M17.2379686,14 L43.5315306,14 L17.2379686,14 Z M44.8205743,21.2973602 C43.4123871,21.2455206 42.0891624,21.9924158 41.3701902,23.2449324 C40.651218,24.4974489 40.651218,26.0557343 41.3701902,27.3082509 C42.0891624,28.5607674 43.4123871,29.3076626 44.8205743,29.255823 C46.8935587,29.1795101 48.5359269,27.4204945 48.5359269,25.2765916 C48.5359269,23.1326887 46.8935587,21.3736731 44.8205743,21.2973602 Z" id="Shape"></path>
                        <path d="M46.5550122,21 C45.2046828,21 44.1100244,19.8756254 44.1100244,18.4886391 C44.1100244,11.0600335 38.2322738,5.02272184 31,5.02272184 C23.7677262,5.02272184 17.8899756,11.0650562 17.8899756,18.4886391 C17.8899756,19.8756254 16.7953172,21 15.4449878,21 C14.0946583,21 13,19.8756254 13,18.4886391 C13.0107802,8.28223572 21.0633432,0.011072864 31,0 C40.9366568,0.011072864 48.9892198,8.28223572 49,18.4886391 C49,19.8756254 47.9053417,21 46.5550122,21 Z" id="Shape"></path>
                    </g>
                    <text id="暂时没有热销商品" font-family="PingFangSC-Regular, PingFang SC" font-size="12" font-weight="normal" line-spacing="21" fill="#BBBBBB">
                        <tspan x="2" y="95">暂时没有热销商品</tspan>
                    </text>
                </g>
            </g>
        </g>
    </g>
</svg>