<?xml version="1.0" encoding="UTF-8"?>
<svg width="54px" height="54px" viewBox="0 0 54 54" version="1.1" xmlns="http://www.w3.org/2000/svg" xmlns:xlink="http://www.w3.org/1999/xlink">
    <!-- Generator: Sketch 48.1 (47250) - http://www.bohemiancoding.com/sketch -->
    <title>Group 33</title>
    <desc>Created with Sketch.</desc>
    <defs>
        <linearGradient x1="24.7917836%" y1="10.3330024%" x2="81.2273465%" y2="100%" id="linearGradient-1">
            <stop stop-color="#469AF7" offset="0%"></stop>
            <stop stop-color="#3F84F7" offset="100%"></stop>
        </linearGradient>
        <circle id="path-2" cx="25" cy="25" r="25"></circle>
        <filter x="-14.0%" y="-10.0%" width="128.0%" height="128.0%" filterUnits="objectBoundingBox" id="filter-4">
            <feOffset dx="0" dy="2" in="SourceAlpha" result="shadowOffsetOuter1"></feOffset>
            <feGaussianBlur stdDeviation="2" in="shadowOffsetOuter1" result="shadowBlurOuter1"></feGaussianBlur>
            <feColorMatrix values="0 0 0 0 0   0 0 0 0 0   0 0 0 0 0  0 0 0 0.05 0" type="matrix" in="shadowBlurOuter1"></feColorMatrix>
        </filter>
        <path d="M25.0440116,10 C25.2291725,10 25.4145145,10.0699079 25.5766253,10.1862633 L37.4250528,20.7034736 C37.5960938,20.8552975 37.6939772,21.0730661 37.6939772,21.3017701 C37.6939772,21.7435979 37.335805,22.1017701 36.8939772,22.1017701 L34.2843302,22.1017701 L34.2843302,34.5343962 C34.2843302,34.7904219 34.0758296,35 33.8211202,35 L16.2205494,35 C15.9656952,35 15.7573755,34.7904219 15.7573755,34.5343962 L15.7573755,22.1017701 L13.1135455,22.1017701 C12.8842117,22.1017701 12.665906,22.003349 12.5140516,21.8314938 C12.2214933,21.5004025 12.2527305,20.9948346 12.5838218,20.7022763 L24.5112892,10.1629486 C24.6734001,10.0465931 24.8587058,10 25.0440116,10 Z M21,22 L21,25 L24,25 L24,22 L21,22 Z M26,22 L26,25 L29,25 L29,22 L26,22 Z M21,27 L21,30 L24,30 L24,27 L21,27 Z M26,27 L26,30 L29,30 L29,27 L26,27 Z" id="path-5"></path>
        <filter x="-19.7%" y="-16.0%" width="139.4%" height="140.0%" filterUnits="objectBoundingBox" id="filter-6">
            <feOffset dx="0" dy="1" in="SourceAlpha" result="shadowOffsetOuter1"></feOffset>
            <feGaussianBlur stdDeviation="1.5" in="shadowOffsetOuter1" result="shadowBlurOuter1"></feGaussianBlur>
            <feColorMatrix values="0 0 0 0 0   0 0 0 0 0   0 0 0 0 0  0 0 0 0.1 0" type="matrix" in="shadowBlurOuter1"></feColorMatrix>
        </filter>
    </defs>
    <g id="卖家后台首页-（1366分辨率）" stroke="none" stroke-width="1" fill="none" fill-rule="evenodd" transform="translate(-918.000000, -363.000000)">
        <g id="卖家后台首页">
            <g id="Group-2">
                <g id="Group-42">
                    <g id="Group-10" transform="translate(250.000000, 286.000000)">
                        <g id="Group-5">
                            <g id="Group-48" transform="translate(635.000000, 77.000000)">
                                <g id="Group-34">
                                    <g id="Group-77" transform="translate(33.000000, 0.000000)">
                                        <g id="Group-47" transform="translate(2.000000, 2.000000)">
                                            <mask id="mask-3" fill="white">
                                                <use xlink:href="#path-2"></use>
                                            </mask>
                                            <g id="Oval-2">
                                                <use fill="black" fill-opacity="1" filter="url(#filter-4)" xlink:href="#path-2"></use>
                                                <use fill="url(#linearGradient-1)" fill-rule="evenodd" xlink:href="#path-2"></use>
                                            </g>
                                            <g id="Combined-Shape" mask="url(#mask-3)">
                                                <use fill="black" fill-opacity="1" filter="url(#filter-6)" xlink:href="#path-5"></use>
                                                <use fill="#FFFFFF" fill-rule="evenodd" xlink:href="#path-5"></use>
                                            </g>
                                        </g>
                                    </g>
                                </g>
                            </g>
                        </g>
                    </g>
                </g>
            </g>
        </g>
    </g>
</svg>