<?xml version="1.0" encoding="UTF-8"?>
<svg width="54px" height="54px" viewBox="0 0 54 54" version="1.1" xmlns="http://www.w3.org/2000/svg" xmlns:xlink="http://www.w3.org/1999/xlink">
    <!-- Generator: Sketch 48.1 (47250) - http://www.bohemiancoding.com/sketch -->
    <title>Group 47</title>
    <desc>Created with Sketch.</desc>
    <defs>
        <linearGradient x1="23.6649899%" y1="9.15014569%" x2="75.8520926%" y2="91.9169314%" id="linearGradient-1">
            <stop stop-color="#8EBF24" offset="0%"></stop>
            <stop stop-color="#78B329" offset="100%"></stop>
        </linearGradient>
        <circle id="path-2" cx="25" cy="25" r="25"></circle>
        <filter x="-14.0%" y="-10.0%" width="128.0%" height="128.0%" filterUnits="objectBoundingBox" id="filter-4">
            <feOffset dx="0" dy="2" in="SourceAlpha" result="shadowOffsetOuter1"></feOffset>
            <feGaussianBlur stdDeviation="2" in="shadowOffsetOuter1" result="shadowBlurOuter1"></feGaussianBlur>
            <feColorMatrix values="0 0 0 0 0   0 0 0 0 0   0 0 0 0 0  0 0 0 0.05 0" type="matrix" in="shadowBlurOuter1"></feColorMatrix>
        </filter>
        <filter x="-22.7%" y="-16.7%" width="145.5%" height="141.7%" filterUnits="objectBoundingBox" id="filter-5">
            <feOffset dx="0" dy="1" in="SourceAlpha" result="shadowOffsetOuter1"></feOffset>
            <feGaussianBlur stdDeviation="1.5" in="shadowOffsetOuter1" result="shadowBlurOuter1"></feGaussianBlur>
            <feColorMatrix values="0 0 0 0 0   0 0 0 0 0   0 0 0 0 0  0 0 0 0.1 0" type="matrix" in="shadowBlurOuter1" result="shadowMatrixOuter1"></feColorMatrix>
            <feMerge>
                <feMergeNode in="shadowMatrixOuter1"></feMergeNode>
                <feMergeNode in="SourceGraphic"></feMergeNode>
            </feMerge>
        </filter>
    </defs>
    <g id="卖家后台首页-（1366分辨率）" stroke="none" stroke-width="1" fill="none" fill-rule="evenodd" transform="translate(-329.000000, -599.000000)">
        <g id="卖家后台首页">
            <g id="Group-2">
                <g id="Group-42">
                    <g id="Group-10" transform="translate(250.000000, 286.000000)">
                        <g id="Group-5">
                            <g id="Group-52" transform="translate(0.000000, 236.000000)">
                                <g id="Group-44" transform="translate(56.000000, 77.000000)">
                                    <g id="Group-78" transform="translate(23.000000, 0.000000)">
                                        <g id="Group-22" transform="translate(2.000000, 2.000000)">
                                            <mask id="mask-3" fill="white">
                                                <use xlink:href="#path-2"></use>
                                            </mask>
                                            <g id="Oval-2">
                                                <use fill="black" fill-opacity="1" filter="url(#filter-4)" xlink:href="#path-2"></use>
                                                <use fill="url(#linearGradient-1)" fill-rule="evenodd" xlink:href="#path-2"></use>
                                            </g>
                                            <g id="Group-19" filter="url(#filter-5)" mask="url(#mask-3)" fill="#FFFFFF" fill-rule="nonzero">
                                                <g transform="translate(13.000000, 12.000000)" id="Shape">
                                                    <path d="M16.5148555,5 L17.7602155,5 C18.8038623,5 19.7422674,5.77288685 19.8580333,6.74810964 L21.890952,21.0009452 C22.0716169,22.5175533 21.1244417,23.7826087 19.7720859,23.7826087 L2.14059402,23.7826087 C0.788238244,23.7826087 -0.157182979,22.5157305 0.0217279022,21.0009452 L2.05464664,6.74810964 C2.1704125,5.77288685 3.10706358,5 4.15246441,5 L5.31187708,5 L16.5148555,5 Z M4.49976201,9.07406157 C4.48174423,9.59977218 4.7413407,10.0937642 5.17667466,10.362174 C5.61200863,10.6305839 6.15361792,10.6305839 6.58895189,10.362174 C7.02428585,10.0937642 7.28388232,9.59977218 7.26586454,9.07406157 C7.23934068,8.30016598 6.62796412,7.68702989 5.88281328,7.68702989 C5.13766243,7.68702989 4.52628588,8.30016598 4.49976201,9.07406157 Z M6.19239926,5 L15.6378413,5 L6.19239926,5 Z M16.1009048,7.63583581 C15.5950414,7.61711111 15.1196991,7.88689268 14.8614226,8.33930667 C14.603146,8.79172067 14.603146,9.35457963 14.8614226,9.80699362 C15.1196991,10.2594076 15.5950414,10.5291892 16.1009048,10.5104645 C16.8455834,10.4829 17.4355717,9.84753648 17.4355717,9.07315015 C17.4355717,8.29876382 16.8455834,7.66340032 16.1009048,7.63583581 Z"></path>
                                                    <path d="M16.6439176,7.30434783 C16.1350979,7.30434783 15.7226179,6.91326102 15.7226179,6.43083098 C15.7226179,3.84696817 13.5078133,1.74703368 10.7826087,1.74703368 C8.05740406,1.74703368 5.84259948,3.8487152 5.84259948,6.43083098 C5.84259948,6.91326102 5.43011954,7.30434783 4.92129974,7.30434783 C4.41247994,7.30434783 4,6.91326102 4,6.43083098 C4.00406211,2.88077764 7.03836122,0.00385143095 10.7826087,0 C14.5268562,0.00385143095 17.5611553,2.88077764 17.5652174,6.43083098 C17.5652174,6.91326102 17.1527374,7.30434783 16.6439176,7.30434783 Z"></path>
                                                </g>
                                            </g>
                                        </g>
                                    </g>
                                </g>
                            </g>
                        </g>
                    </g>
                </g>
            </g>
        </g>
    </g>
</svg>