<?xml version="1.0" encoding="UTF-8"?>
<svg width="80px" height="80px" viewBox="0 0 80 80" version="1.1" xmlns="http://www.w3.org/2000/svg" xmlns:xlink="http://www.w3.org/1999/xlink">
    <!-- Generator: Sketch 48.1 (47250) - http://www.bohemiancoding.com/sketch -->
    <title>Group 56</title>
    <desc>Created with Sketch.</desc>
    <defs></defs>
    <g id="Login-3-Copy-27" stroke="none" stroke-width="1" fill="none" fill-rule="evenodd" transform="translate(-1478.000000, -125.000000)">
        <g id="Group-11" transform="translate(1478.000000, 125.000000)">
            <g id="Group-56">
                <g id="Group-55">
                    <circle id="Oval-5" fill="#E2F2FB" cx="40" cy="40" r="40"></circle>
                    <g id="Group-54" transform="translate(36.166667, 38.666667) scale(-1, 1) translate(-36.166667, -38.666667) translate(14.833333, 13.333333)" stroke="#0096F4" stroke-width="2.5">
                        <path d="M4.16666667,23.3379678 L4.16666981,37.4627031 C4.16666981,38.6367261 4.41473904,39.7975001 4.89462308,40.868967 C7.51788405,46.7260846 11.7738491,49.6546434 17.6625182,49.6546434 C23.1838028,49.6546434 27.2697519,47.2451877 29.9203654,42.4262762 L29.9203658,42.4262764 C30.7325183,40.9497537 31.1583697,39.2919368 31.1583697,37.6067925 L31.1583697,21.06595 L21.6658004,10.8333333 L4.16666285,10.8333333 L4.16666667,23.3379678 Z" id="Path-6" fill="#FFFFFF"></path>
                        <path d="M3.45525431,23.0864404 C-0.78180789,17.0228234 -0.200125846,11.9354096 5.20030044,7.82419922 C6.2384673,7.03386859 5.20030044,6.15745675 7.30063744,3.88675193 C11.1633229,-0.289253449 18.7770194,-0.289253449 30.1417268,3.88675193 C35.4165431,5.87943338 38.0539513,4.86162718 38.0539513,0.833333333 C44.3848736,10.5705457 43.0345816,17.1254744 34.0030755,20.4981195 C22.2097621,22.3221001 13.858906,20.1530652 8.95050718,13.9910148 C8.33886877,13.2231582 9.0526283,17.1578246 7.30063744,20.4981195 C6.66617052,21.7077757 5.38437615,22.5705494 3.45525431,23.0864404 Z" id="Path-5" fill="#9CE2FF"></path>
                    </g>
                    <rect id="Rectangle-17" fill="#0096F4" x="32.5" y="40" width="3.33333333" height="6.66666667" rx="1.66666667"></rect>
                    <rect id="Rectangle-17-Copy" fill="#0096F4" x="43.3333333" y="40" width="3.33333333" height="6.66666667" rx="1.66666667"></rect>
                    <path d="M60.805124,74.3513193 C57.980175,69.7991063 53.9164406,67.2129045 49.4524602,67.2129045 C44.9884799,67.2129045 38.3126113,67.2129045 29.4248545,67.2129045 C24.9220194,67.4228281 21.3699882,69.6861928 19.0381629,74.0284822" id="Path-7" stroke="#0096F4" stroke-width="2.5" fill="#9CE2FF"></path>
                    <path d="M29.5377009,68.3333333 C25.3485931,68.5286309 22.1693594,70.6461536 20,74.6859015 C25.2636157,77.8272895 31.4412587,79.5783387 38.532929,79.9390493 C45.6245993,80.2997598 52.6678724,78.6033128 59.6627486,74.8497083 C56.1538217,70.5054583 52.3228782,68.3333333 48.1699179,68.3333333 C44.0169577,68.3333333 37.8062187,68.3333333 29.5377009,68.3333333 Z" id="Path-7" fill="#9CE2FF"></path>
                    <path d="M35.4755532,62.6681358 L35.4755532,67.6698495 C32.8576932,67.6698495 31.3141342,67.6698495 30.8448761,67.6698495 C30.1409889,67.6698495 34.8118362,72.9161835 39.8686406,72.9616021 C43.0917558,72.9905511 46.987447,71.1242948 49.4931658,67.9615716 C49.5699168,67.8646964 49.3405281,67.8158044 48.8049995,67.8148957 L44.7688013,67.8148957 L44.7688013,62.1670461 C43.238476,62.8162339 41.6958535,63.1408278 40.1409338,63.1408278 C38.5860141,63.1408278 37.0308872,62.9832638 35.4755532,62.6681358 Z" id="Path-9" stroke="#0096F4" stroke-width="2.5" fill="#FFFFFF"></path>
                    <path d="M38.4529485,55.894397 C39.8195139,55.8278995 40.7671036,55.6324113 41.2957174,55.3079323 C42.0511055,54.8442525 42.6331952,54.1030147 43.0419865,53.0842187 L43.0419851,53.0842181 C43.3238197,52.3818258 44.1216932,52.0408964 44.8240855,52.322731 C45.4549594,52.5758688 45.8049082,53.2532239 45.6463179,53.9142306 C45.6463179,53.9142306 45.6463179,53.9142306 45.6463179,53.9142306 C45.3558476,55.1249157 44.5821968,56.6422132 42.5172906,57.7569321 C41.4251833,58.3464953 40.1027577,58.5846448 38.5500136,58.4713808 L38.5500145,58.4713686 C37.8395704,58.4195457 37.2896418,57.8280417 37.2896418,57.11571 L37.2896418,57.11571 C37.2896418,56.4635136 37.801524,55.9261174 38.4529496,55.8944188 Z" id="Path-10" fill="#0096F4"></path>
                </g>
            </g>
        </g>
    </g>
</svg>