<?xml version="1.0" encoding="UTF-8"?>
<svg width="18px" height="19px" viewBox="0 0 18 19" version="1.1" xmlns="http://www.w3.org/2000/svg" xmlns:xlink="http://www.w3.org/1999/xlink">
    <!-- Generator: Sketch 48.1 (47250) - http://www.bohemiancoding.com/sketch -->
    <title>Combined Shape</title>
    <desc>Created with Sketch.</desc>
    <defs></defs>
    <g id="卖家后台首页-（1366分辨率）" stroke="none" stroke-width="1" fill="none" fill-rule="evenodd" transform="translate(-1137.000000, -29.000000)">
        <g id="卖家后台首页" fill="#8CA0B3">
            <g id="Group-2">
                <g id="Group-42">
                    <g id="Top-User" transform="translate(311.000000, 20.000000)">
                        <g id="Messaging" transform="translate(825.952381, 0.000000)">
                            <g id="social" transform="translate(0.000000, 0.318182)">
                                <g id="Capa_1">
                                    <g id="Group-24" transform="translate(0.000000, 2.000000)">
                                        <g id="Group-27">
                                            <g id="Group-28">
                                                <g id="Group-65" transform="translate(0.000000, 6.000000)">
                                                    <path d="M11.0383663,16.5769113 C11.1017638,16.7595447 11.1360869,16.9548673 11.1360869,17.1578585 C11.1360869,18.1752452 10.2738938,19 9.21032482,19 C8.1467558,19 7.28456276,18.1752452 7.28456276,17.1578585 C7.28456276,16.9548673 7.31888588,16.7595447 7.38228338,16.5769113 L1,16.5769113 L1,15.6791731 C1.42483222,15.2987397 1.88216994,14.805272 2.24847218,14.1915613 C3.62696633,11.8663328 2.82286986,10.5777805 3.36471181,6.27560567 C3.84912906,2.41917608 6.87269255,1.31516955 8.42351103,1 L9.99924871,1 C11.5479069,1.31516955 14.5714703,2.41922414 15.0569929,6.27560567 C15.5988348,10.579799 14.7947384,11.8663328 16.1732325,14.1915613 C16.5373744,14.805272 16.9968725,15.2987397 17.4205994,15.6791731 L17.4205994,16.5769113 L11.0383663,16.5769113 Z" id="Combined-Shape"></path>
                                                </g>
                                            </g>
                                        </g>
                                    </g>
                                </g>
                            </g>
                        </g>
                    </g>
                </g>
            </g>
        </g>
    </g>
</svg>